<svg xmlns="http://www.w3.org/2000/svg" viewBox="0 0 750 500"><g id="freepik--background-simple--inject-19"><path d="M483.57,120.68l-.26,2.48c-2.2,20.94,6.95,41.52,24.32,53.07a54.74,54.74,0,0,0,7,4c17.52,8.23,39.29,6.8,55.82-3.66,9.72-6.15,18.13-15.35,29.37-17.56,14.63-2.86,28.24,7.05,39.75,16.37s25.14,19.21,39.76,16.28c9.16-1.83,16.75-8.57,22-16.34,14-20.56,13.64-48.7,2.8-70.8s-30.85-38.56-53-49.27c-31-15-67.8-19.55-100.6-8.26S490.13,86.56,483.57,120.68Z" style="fill:#f5f5f5"></path><path d="M299.29,116.2l.26,2.48c2.19,20.94-7,41.52-24.32,53.07a54.27,54.27,0,0,1-7,3.95c-17.52,8.23-39.29,6.81-55.82-3.65-9.72-6.15-18.12-15.36-29.37-17.56-14.63-2.86-28.24,7-39.74,16.37s-25.15,19.21-39.77,16.28c-9.16-1.84-16.75-8.57-22-16.34-14-20.56-13.63-48.7-2.8-70.8s30.86-38.56,53-49.27c31-15,67.8-19.55,100.61-8.26S292.73,82.08,299.29,116.2Z" style="fill:#f5f5f5"></path></g><g id="freepik--Floor--inject-19"><path d="M736.52,436.31c0,.15-162.76.26-363.5.26s-363.54-.11-363.54-.26,162.73-.26,363.54-.26S736.52,436.17,736.52,436.31Z" style="fill:#263238"></path></g><g id="freepik--arrow-2--inject-19"><polygon points="477.47 234.43 466.67 268.01 501.56 270.86 477.47 234.43" style="fill:#e0e0e0"></polygon><path d="M670.09,290.3c-19.62-24.09-52.18-41.59-87.11-46.83-32.84-4.92-71.3,3.7-98,22l-10.32-15.09c30.3-20.72,73.88-30.51,111-24.94,39.89,6,75.82,25.43,98.58,53.36Z" style="fill:#e0e0e0"></path></g><g id="freepik--arrow-1--inject-19"><polygon points="275.54 225.58 286.34 259.16 251.45 262.01 275.54 225.58" style="fill:#e0e0e0"></polygon><path d="M91.47,280,77.29,268.45c24.33-29.86,52.94-46.35,90-51.91s80.74,4.22,111,24.94L268,256.57c-26.69-18.26-65.16-26.87-98-21.95S113,253.53,91.47,280Z" style="fill:#e0e0e0"></path></g><g id="freepik--electric-station--inject-19"><path d="M707.89,268.89l6.78.4a18.11,18.11,0,0,1,5,.77l.05,0a7.76,7.76,0,0,1,4.36,4.9L728,286.26a2,2,0,0,1-1.13,2.51l-3.15,1.3a2,2,0,0,1-2.67-1.21l-2.46-7.27a.87.87,0,0,0-.82-.57l-10.32-.52A16,16,0,0,1,707.89,268.89Z" style="fill:#455a64"></path><path d="M659.35,249.78H712.4a0,0,0,0,1,0,0V426.56a6.87,6.87,0,0,1-6.87,6.87H666.22a6.87,6.87,0,0,1-6.87-6.87V249.78A0,0,0,0,1,659.35,249.78Z" transform="translate(1371.75 683.2) rotate(180)" style="fill:#e0e0e0"></path><path d="M659.37,257.33l0,22.37h53l.34-22.65c0-5.33-4.29-7.64-9.62-7.64L669,249.25C663.23,249.2,659.35,250.72,659.37,257.33Z" style="fill:#455a64"></path><rect x="672.4" y="268.2" width="26.95" height="57.05" rx="1.66" transform="translate(1371.75 593.46) rotate(180)" style="fill:#263238"></rect><rect x="647.35" y="429.64" width="78.04" height="7.57" transform="translate(1372.74 866.85) rotate(180)" style="fill:#263238"></rect><path d="M711.88,302.07V318l8.33-5.12v-5.13h-.69a8,8,0,0,1-6.58-3.3A6.37,6.37,0,0,1,711.88,302.07Z" style="fill:#e0e0e0"></path><path d="M725.82,395.76a8.66,8.66,0,0,0,4.06-1c4.3-2.24,6.76-7.72,6.76-15v-.15a179.41,179.41,0,0,0-3.71-23.78c-1.43-6.92-1.06-14.25-2.74-27-.8-6.08-2.89-40.2-2.88-40.32l-3.63,1.59c0,.53,2.18,32.77,3,39.19,1.7,12.85,1.34,20.25,2.78,27.23a175.09,175.09,0,0,1,3.64,23.29c0,5.84-1.84,10.27-4.88,11.86a5.76,5.76,0,0,1-6.16-.68c-4-2.82-7.72-10.54-6-23.77,4.11-18.3,6.63-32.32,6.51-45.63-.34-24.75-3.74-30.68-4.12-31.27l-3,1.91s3.24,5.76,3.56,29.39c.11,13-2.38,26.82-6.45,44.91l0,.16c-1.63,12.6,1.16,22.76,7.48,27.18A10.1,10.1,0,0,0,725.82,395.76Z" style="fill:#263238"></path><path d="M712.4,282.73v9.7a5.11,5.11,0,0,0,1.57.25,5,5,0,0,0,1.51-.23,5.1,5.1,0,0,0,0-9.74,5.35,5.35,0,0,0-1.51-.22A5.42,5.42,0,0,0,712.4,282.73Z" style="fill:#263238"></path><polygon points="686.84 345.98 676.87 365.16 686.61 365.16 681.72 378.7 693.87 359.75 684.28 359.75 686.84 345.98" style="fill:#455a64"></polygon><path d="M692.92,317.12h-13.1a1,1,0,0,1-.93-1V282.74a1,1,0,0,1,.93-1h2.53l-.08-2.63a1,1,0,0,1,.93-1h6.34a1,1,0,0,1,.92,1v2.63a0,0,0,0,0,0,0l2.45,0a1,1,0,0,1,.92,1v33.39A1,1,0,0,1,692.92,317.12Zm-13.1-34.37.07,33.38h13l-.08-33.38h-2.45a1,1,0,0,1-.93-1v-2.63H683.2l.07,2.62a1,1,0,0,1-.92,1Z" style="fill:#455a64"></path><rect x="681.27" y="284.13" width="10.2" height="2.51" rx="0.59" style="fill:#455a64"></rect><rect x="681.27" y="287.59" width="10.2" height="2.51" rx="0.59" style="fill:#455a64"></rect><rect x="681.27" y="291.04" width="10.2" height="2.51" rx="0.59" style="fill:#455a64"></rect><rect x="681.27" y="294.5" width="10.2" height="2.51" rx="0.59" style="fill:#455a64"></rect><rect x="681.27" y="297.95" width="10.2" height="2.51" rx="0.59" style="fill:#455a64"></rect><rect x="681.27" y="301.41" width="10.2" height="2.51" rx="0.59" style="fill:#455a64"></rect><rect x="681.27" y="304.86" width="10.2" height="2.51" rx="0.59" style="fill:#455a64"></rect><rect x="681.27" y="308.33" width="10.2" height="2.51" rx="0.59" style="fill:#455a64"></rect><rect x="681.27" y="311.84" width="10.2" height="2.51" rx="0.59" style="fill:#455a64"></rect><path d="M659.35,432.07s0-.39,0-1.18,0-2,0-3.5c0-3.1,0-7.65,0-13.51,0-11.77,0-28.78-.08-49.79s-.05-46.1-.08-73.92q0-10.44,0-21.37v-11a10.92,10.92,0,0,1,.22-2.83,7.13,7.13,0,0,1,6.22-5.37c7.61-.07,15.27,0,23.09,0h14.78c1,0,2-.05,3,.06a7.14,7.14,0,0,1,6.22,6.52c.05,1.17,0,2.27,0,3.41v46c0,17,0,33.19,0,48.45,0,30.53,0,57.2-.07,78.1v.17h-.17l-39.12-.09-10.38,0-2.66,0-.89,0h.92l2.69,0,10.42,0,39-.09-.16.16c0-20.9,0-47.57-.07-78.1,0-15.26,0-31.49,0-48.45q0-12.7,0-25.94V259.51c0-1.12,0-2.28,0-3.37a6.58,6.58,0,0,0-5.76-6c-.94-.11-2,0-3-.06H688.63c-7.8,0-15.53,0-23,0a6.59,6.59,0,0,0-5.78,5,10.53,10.53,0,0,0-.21,2.71v11q0,10.91,0,21.33c0,27.78-.06,52.8-.08,73.82s-.06,38.05-.08,49.82c0,5.89,0,10.46,0,13.58,0,1.54,0,2.73,0,3.53S659.35,432.07,659.35,432.07Z" style="fill:#263238"></path></g><g id="freepik--gas-station--inject-19"><path d="M44.28,282.27s4.92-14,10.36-19.54v5.74s-6.23,10.65-7.19,16.67Z" style="fill:#263238"></path><path d="M61,249.25H99.63a6.87,6.87,0,0,1,6.87,6.87V432.58a0,0,0,0,1,0,0H54.12a0,0,0,0,1,0,0V256.12A6.87,6.87,0,0,1,61,249.25Z" style="fill:#e0e0e0"></path><path d="M99.75,249.25H60.87A6.75,6.75,0,0,0,54.12,256v22.78h52.37V256A6.75,6.75,0,0,0,99.75,249.25Z" style="fill:#FFFFFF"></path><rect x="67.01" y="267.43" width="26.61" height="56.32" rx="1.5" style="fill:#263238"></rect><rect x="41.79" y="428.84" width="77.03" height="7.47" style="fill:#263238"></rect><path d="M54.12,281.78v9.57a5.11,5.11,0,0,1-3,0,5,5,0,0,1,0-9.61,5.11,5.11,0,0,1,3,0Z" style="fill:#263238"></path><path d="M54.64,300.87v15.69l-8.22-5.06v-5.06h.68a7.91,7.91,0,0,0,6.5-3.26A6.4,6.4,0,0,0,54.64,300.87Z" style="fill:#e0e0e0"></path><polygon points="45.04 287.3 43.91 290.68 46.95 291.54 46.25 295.44 41.83 295.44 41.83 303.85 43.83 304.81 43.83 308.11 37.24 308.11 37.24 297.29 35.94 295.27 35.94 291.54 38.88 291.54 43.83 280.88 48.65 284.37 48.17 287.64 45.04 287.3" style="fill:#e0e0e0"></polygon><path d="M40.88,393.35a8.71,8.71,0,0,1-4-1c-4.24-2.22-6.67-7.63-6.67-14.85v-.15a177.63,177.63,0,0,1,3.66-23.48c1.41-6.83,3-14.57,4.67-27.13.8-6,0-18.35,0-18.47l3.46-.23c0,.52.83,12.81,0,19.15-1.67,12.69-3.29,20.5-4.71,27.38a174.72,174.72,0,0,0-3.6,23c0,5.76,1.82,10.14,4.82,11.7a5.69,5.69,0,0,0,6.09-.67c4-2.78,7.62-10.4,5.94-23.46-4.06-18.06-6.55-31.91-6.43-45,.33-24.43,3.69-30.28,4.07-30.86l2.9,1.89s-3.19,5.68-3.51,29c-.11,12.82,2.36,26.47,6.37,44.33l0,.16c1.61,12.43-1.15,22.46-7.39,26.82A9.89,9.89,0,0,1,40.88,393.35Z" style="fill:#263238"></path><path d="M86.29,358h0l-.07-.16a6.62,6.62,0,0,0-.81-1.67l-4.11-8.43a1.14,1.14,0,0,0-2,0l-4.66,9.41h0a6.29,6.29,0,1,0,11.66.85Z" style="fill:#FFFFFF"></path><rect x="73.35" y="278.65" width="13.92" height="2.23" rx="0.81" style="fill:#455a64"></rect><rect x="73.35" y="282.85" width="5.13" height="2.23" rx="0.81" style="fill:#455a64"></rect><path d="M76.92,312.94a2.09,2.09,0,1,1-2.08-2.09A2.08,2.08,0,0,1,76.92,312.94Z" style="fill:#FFFFFF"></path><path d="M87.9,312.94a2.09,2.09,0,1,1-2.08-2.09A2.08,2.08,0,0,1,87.9,312.94Z" style="fill:#455a64"></path><path d="M53.86,428.84s0-.39,0-1.16,0-1.95,0-3.46c0-3.05,0-7.54,0-13.32,0-11.6-.05-28.36-.08-49.07s-.05-45.45-.08-72.88q0-10.27,0-21.06V257a9.86,9.86,0,0,1,.24-2.79A7.12,7.12,0,0,1,60,248.94c7.5-.07,15.06,0,22.77,0H97.36a27.22,27.22,0,0,1,3,.08,7.11,7.11,0,0,1,6.12,6.45c.06,1.16,0,2.24,0,3.36v19.78q0,13,0,25.56c0,16.71,0,32.7,0,47.74,0,30.08,0,56.36-.07,77V429h-.16l-38.62-.09-10.24,0-2.63,0-.88,0h.91l2.66,0,10.28,0,38.52-.09-.17.16c0-20.61,0-46.89-.07-77,0-15,0-31,0-47.74q0-12.53,0-25.56V258.79c0-1.1,0-2.24,0-3.31a6.49,6.49,0,0,0-1-3,6.59,6.59,0,0,0-4.64-3c-.93-.11-1.93-.05-2.91-.07H82.8c-7.69,0-15.32,0-22.72,0A6.61,6.61,0,0,0,55.51,252a6.74,6.74,0,0,0-1.17,2.37,9.77,9.77,0,0,0-.23,2.66v10.86q0,10.75,0,21c0,27.38-.06,52.05-.08,72.76s-.06,37.51-.08,49.12c0,5.8,0,10.31,0,13.38,0,1.53,0,2.69,0,3.49S53.86,428.84,53.86,428.84Z" style="fill:#263238"></path></g><g id="freepik--speech-bubble--inject-19"><path d="M353,153.29a41.28,41.28,0,0,0,21,69.84h0L381.6,234l7.25-10.62a41.08,41.08,0,0,0,20.91-10.09,41.3,41.3,0,1,0-56.74-60Z" style="fill:#fff"></path><path d="M353,153.29s.16-.17.5-.48l1.52-1.39,1.12-1c.43-.35.94-.7,1.47-1.09l1.72-1.25a23.11,23.11,0,0,1,2.07-1.26A38.81,38.81,0,0,1,373,142.24a41.17,41.17,0,0,1,16.46-.38A40.36,40.36,0,0,1,407.64,150l2.13,1.72,2,1.95,1,1c.32.34.6.72.91,1.09l1.82,2.22a41.78,41.78,0,0,1,6.59,35.59,39.87,39.87,0,0,1-5.55,12.25l-.94,1.43-1.08,1.35a28.22,28.22,0,0,1-2.27,2.62c-.82.82-1.63,1.66-2.48,2.46s-1.77,1.52-2.72,2.22a41.34,41.34,0,0,1-18.14,7.76l.17-.11-7.25,10.62a.25.25,0,0,1-.35.06s0,0-.07-.06l-7.58-10.86a.25.25,0,0,1,.06-.35.25.25,0,0,1,.12,0h0l0,.48a41.4,41.4,0,0,1-17.11-7.73A41.42,41.42,0,0,1,341,188.17a42.72,42.72,0,0,1,.34-13,40.7,40.7,0,0,1,7.29-16.87l1.75-2.25,1.43-1.51.87-.92.31-.3s-.09.12-.28.33l-.84.94-1.39,1.54-1.72,2.27a44.15,44.15,0,0,0-4,6.77,43.43,43.43,0,0,0-3.15,10.05,42.52,42.52,0,0,0-.28,12.93,41,41,0,0,0,15.76,27.15,40.67,40.67,0,0,0,16.93,7.62.25.25,0,0,1,.19.29.25.25,0,0,1-.22.2h0l.19-.39,7.6,10.86h-.42c2.37-3.46,4.79-7,7.25-10.62a.28.28,0,0,1,.17-.11,40.72,40.72,0,0,0,17.91-7.67c.93-.69,1.82-1.43,2.68-2.19s1.64-1.62,2.45-2.43a25.06,25.06,0,0,0,2.24-2.59l1.07-1.32.93-1.42a39.28,39.28,0,0,0,5.49-12.1,41.21,41.21,0,0,0-1-24.83,43.85,43.85,0,0,0-5.48-10.35l-1.8-2.2c-.3-.36-.58-.74-.89-1.08l-1-1-1.95-2-2.1-1.7a40.12,40.12,0,0,0-18-8.09,41.19,41.19,0,0,0-16.33.3A39,39,0,0,0,361.53,147a22,22,0,0,0-2.08,1.24c-.62.43-1.2.84-1.73,1.23s-1,.72-1.48,1.06l-1.13,1-1.55,1.34Z" style="fill:#263238"></path><polygon points="361.33 184.21 367.14 178.4 378.36 188.36 400.36 167.19 405.76 173 377.52 199.58 361.33 184.21" style="fill:#FFFFFF"></polygon></g><g id="freepik--Car--inject-19"><rect x="154.53" y="345.97" width="447.66" height="58.68" style="fill:#FFFFFF"></rect><g style="opacity:0.4"><rect x="154.53" y="345.97" width="447.66" height="58.68"></rect></g><path d="M628,342.49C615.3,334.9,582.29,323,573.13,322c-5.55-.61-30.25-3.89-30.25-3.89l-8-.62s-85.11-40.7-98.65-45.75c-21-7.82-65.27-14.62-112.25-9,0,0-62.78,5.54-76.73,9.44s-81.45,24.21-81.45,24.21-29.59,3-29.13,4.1a9,9,0,0,0,2.87,4.11V322.8s-3.28,4.3-4.1,6.36-2.67,18.25-2.67,18.25-8.84,20.31-8.84,25.65,16,25.85,19.92,28.93,35.38,7.56,35.38,7.56l0-15.36c.83-23.39,19.7-42.09,42.87-42.09s42.05,18.7,42.88,42.09l.09,19.9H510.61l-.17-14.77c-.09-1.17-.15-2.34-.15-3.53,0-24.13,19.21-43.69,42.91-43.69s42.92,19.56,42.92,43.69c0,1.19-.06,2.36-.15,3.53h.87v14.77h28.31s23-17,22.36-25.64V364.18a12.72,12.72,0,0,0-3.41-8.69A73.87,73.87,0,0,0,628,342.49Z" style="fill:#FFFFFF"></path><g style="opacity:0.2"><path d="M647.51,371.21l-18.12-6.46-2.15,9.85-28.93-1.54s-12.74-24.32-38.78-26.46c-22.29-1.84-40,9.25-40,9.25L392.12,343.21s-64.62-2.46-89.55-2.15-46.9,18.42-46.9,18.42-7.35-10.67-33.42-10.91-36.95,15.06-36.95,15.06a107.08,107.08,0,0,1-50.81-21l-1.28,1c-.26,2.18-.44,3.72-.44,3.72s-8.84,20.31-8.84,25.65,16,25.85,19.92,28.93,35.38,7.56,35.38,7.56l0-15.36c.83-23.39,19.7-42.09,42.87-42.09s42.05,18.7,42.88,42.09l.09,19.9H510.61l-.17-14.77c-.09-1.17-.15-2.34-.15-3.53,0-24.13,19.21-43.69,42.91-43.69s42.92,19.56,42.92,43.69c0,1.19-.06,2.36-.15,3.53h.87v14.77h28.31s23-17,22.36-25.64V371.21Z"></path></g><path d="M210.52,297.66a3,3,0,0,0,1.34,5.36l21.59,2.88,122.66,13.52,149.55,8.3a6.86,6.86,0,0,0,6.12-2.9c1.27-1.9,1.75-4.56-1.39-7.57-6.27-6-34-21.63-40.56-24.7a226,226,0,0,0-120.54-26.76c-20.67.71-60.33,6.62-111.59,13.33a6.87,6.87,0,0,0-3,1.2Z" style="fill:#263238"></path><path d="M236,303.69c.3-.92,11.34-21.77,13.49-23s91.39-12.57,92.62-11S346.43,315,346.43,315Z" style="fill:#455a64"></path><polygon points="270.03 277.5 269.26 308.11 273.86 308.11 273.86 276.99 270.03 277.5" style="fill:#263238"></polygon><path d="M484.5,300.48s.08.15.22.46.36.78.63,1.39.65,1.37,1,2.29l1.25,3.21a108.57,108.57,0,0,1,5.24,21.9,176.8,176.8,0,0,1,1.09,34.9c-.4,6.73-1.14,13.88-2.27,21.35-.58,3.73-1.24,7.55-2.08,11.43a18.5,18.5,0,0,1-.79,2.91,21.16,21.16,0,0,1-1.4,2.72,58.52,58.52,0,0,1-3.45,5.1l-.07.09h-.12l-101.37-1.85-55.33-1.27c-8.79-.17-17.35-.34-25.61-.4-1,0-2.06,0-3.08,0s-2,0-3.08,0a15.51,15.51,0,0,1-5.84-1.65,20.53,20.53,0,0,1-4.86-3.44,24.16,24.16,0,0,1-3.77-4.45h0c-9.45-13-18-25-25.45-35.75-3.72-5.38-7.19-10.41-10.32-15.13s-6-9.06-8.39-13.09a54.15,54.15,0,0,1-3.17-5.87l-.6-1.43c-.2-.47-.3-1-.46-1.43s-.3-.93-.38-1.39-.18-.93-.26-1.38a19.94,19.94,0,0,1,.61-9.2,20.22,20.22,0,0,1,2.42-5.21,11.8,11.8,0,0,1,1.2-1.57l-.31.4c-.19.26-.48.67-.83,1.21a20.55,20.55,0,0,0-2.34,5.21,19.75,19.75,0,0,0-.55,9.13l.26,1.36c.09.46.27.91.4,1.38s.26.95.45,1.41l.6,1.42a57.63,57.63,0,0,0,3.18,5.82c2.42,4,5.28,8.36,8.43,13.06s6.64,9.72,10.37,15.09c7.49,10.7,16,22.7,25.5,35.7h0a22.84,22.84,0,0,0,8.45,7.71,15.32,15.32,0,0,0,5.68,1.6c1,.05,2,.05,3,0s2.06,0,3.09,0c8.27,0,16.82.22,25.62.38l55.33,1.25,101.37,1.91-.18.09c1.23-1.64,2.39-3.33,3.43-5.05a23,23,0,0,0,1.37-2.65,17.85,17.85,0,0,0,.77-2.85c.84-3.86,1.51-7.67,2.09-11.4,1.15-7.45,1.9-14.58,2.31-21.3a177.86,177.86,0,0,0-1-34.84,111,111,0,0,0-5.1-21.89l-1.22-3.22c-.35-.93-.72-1.68-1-2.3l-.6-1.4C484.55,300.64,484.5,300.48,484.5,300.48Z" style="fill:#263238"></path><path d="M358,319.52a5.89,5.89,0,0,1,.25.87c.14.57.32,1.43.5,2.54.36,2.21.74,5.44,1,9.45.53,8,.32,19.1.16,31.33s-.46,23.31-.69,31.33c-.13,4-.23,7.2-.3,9.49-.05,1.08-.08,1.94-.11,2.57l0,.68a.74.74,0,0,1,0,.22.94.94,0,0,1,0-.23c0-.18,0-.4,0-.67,0-.63,0-1.49,0-2.58,0-2.29.08-5.52.13-9.49.14-8.06.33-19.11.54-31.33s.43-23.3,0-31.3c-.2-4-.52-7.22-.82-9.44-.15-1.11-.3-2-.4-2.55l-.12-.66A.66.66,0,0,1,358,319.52Z" style="fill:#263238"></path><path d="M359,268.79,368.15,315,465.73,322l15-20.38s-37.81-21.51-71-28C376,267,359,268.79,359,268.79Z" style="fill:#455a64"></path><g style="opacity:0.2"><path d="M282.26,375.65s45.59,19.16,53.88,21S478,399.46,478,399.46l2.77-6-139.41-.93S285.34,371.65,282.26,375.65Z"></path></g><path d="M255.67,359.48l-.24-.22c-.15-.15-.39-.36-.7-.64a30.79,30.79,0,0,0-2.93-2.18,42.82,42.82,0,0,0-5.09-2.76,54.86,54.86,0,0,0-7.22-2.56,64.63,64.63,0,0,0-9.11-1.76c-1.65-.25-3.38-.32-5.16-.47-.88-.07-1.79,0-2.7-.07s-1.84-.06-2.78,0A56.93,56.93,0,0,0,196.33,355a48.83,48.83,0,0,0-9.05,5.81l-.22.18-.16-.22c-4.35-6-8.39-11.68-11.9-16.9s-6.47-10-8.88-13.95-4.29-7.23-5.58-9.46l-1.45-2.57-.37-.67a1,1,0,0,1-.11-.23s.06.06.15.21l.41.64c.36.61.88,1.45,1.53,2.53l5.7,9.37c2.45,4,5.44,8.7,9,13.88S183,354.5,187.31,360.5l-.37-.05a50,50,0,0,1,9.16-5.89,56.88,56.88,0,0,1,23.62-6.19,26.36,26.36,0,0,1,2.81,0c.92,0,1.83,0,2.72.07,1.78.16,3.52.24,5.18.5a63.6,63.6,0,0,1,9.16,1.84,51.51,51.51,0,0,1,7.24,2.65,41.05,41.05,0,0,1,5.08,2.85,27.7,27.7,0,0,1,2.89,2.27c.3.3.53.52.67.69A1,1,0,0,1,255.67,359.48Z" style="fill:#263238"></path><path d="M139,383.86a8.17,8.17,0,0,1-.38-1.46c-.21-.95-.48-2.33-.81-4-.64-3.41-1.45-8.13-2.22-13.37s-1.36-10-1.72-13.44c-.19-1.72-.32-3.12-.39-4.09a7.1,7.1,0,0,1-.06-1.5,9.68,9.68,0,0,1,.26,1.48c.14,1.06.33,2.42.55,4.07.46,3.43,1.11,8.18,1.88,13.41s1.51,10,2.07,13.38c.26,1.63.48,3,.64,4.05A9,9,0,0,1,139,383.86Z" style="fill:#263238"></path><path d="M180.09,387.3a1.93,1.93,0,0,1-.52,0h-1.5c-1.3,0-3.19,0-5.51-.12-4.66-.16-11.08-.52-18.16-1.22s-13.45-1.61-18-2.37c-2.3-.38-4.15-.71-5.43-1l-1.47-.3a3.19,3.19,0,0,1-.5-.14,1.71,1.71,0,0,1,.52,0l1.49.21,5.45.81c4.6.66,11,1.51,18,2.21s13.48,1.12,18.12,1.37l5.5.28,1.5.09A2,2,0,0,1,180.09,387.3Z" style="fill:#263238"></path><path d="M629.39,364.75s-5.64-13.06-5.48-13.5c.87-2.34,4.11-8.76,4.11-8.76a65.32,65.32,0,0,1,5.87,3.77,74.62,74.62,0,0,1,10.92,9.51,10.42,10.42,0,0,1,2.7,7v10.94Z" style="fill:#ebebeb"></path><path d="M506.61,304.24a29.56,29.56,0,0,1-2.62,3.52,28.23,28.23,0,0,1-2.71,3.45,13.59,13.59,0,0,1,2.3-3.76A13.44,13.44,0,0,1,506.61,304.24Z" style="fill:#263238"></path><path d="M139.54,304.54s42.75,3.5,42.28,4.44-42.28,13.82-42.28,13.82Z" style="fill:#ebebeb"></path><path d="M139.41,323.32a85.41,85.41,0,0,1-.26-9.35,86.94,86.94,0,0,1,.25-9.35,80.86,80.86,0,0,1,.27,9.35A85.41,85.41,0,0,1,139.41,323.32Z" style="fill:#263238"></path><path d="M598.31,373.06l-.23-.36c-.15-.25-.36-.62-.66-1.08-.58-1-1.52-2.32-2.8-4.05a61.26,61.26,0,0,0-5.17-6,52.8,52.8,0,0,0-8.13-6.86,44.83,44.83,0,0,0-11.71-5.86,50.84,50.84,0,0,0-15.16-2.32,67.85,67.85,0,0,0-17.3,1.85,54,54,0,0,0-8.93,2.9,40.67,40.67,0,0,0-8.54,4.73l-.09.06h-.09l-65.06-6.43-60.46-6-1.73-.18-1.73-.09-3.43-.16-6.72-.3-12.86-.46c-8.3-.25-16-.41-23.09-.51-14.11-.21-25.54-.23-33.44-.27l-9.09-.05-2.37,0-.8,0,.8,0,2.37,0,9.09,0c7.9,0,19.33-.06,33.45.1,7.06.08,14.79.21,23.1.45q6.23.18,12.86.43l6.72.29,3.44.16,1.73.09,1.74.17,60.46,6,65.07,6.48-.17.05a40.93,40.93,0,0,1,8.66-4.78,55.42,55.42,0,0,1,9-2.91,68.7,68.7,0,0,1,17.41-1.82,51.23,51.23,0,0,1,15.27,2.39,45,45,0,0,1,11.76,6,52,52,0,0,1,8.13,6.93,61,61,0,0,1,5.13,6.05c1.27,1.75,2.18,3.13,2.75,4.1S598.31,373.06,598.31,373.06Z" style="fill:#263238"></path><path d="M478,399.46h-2l-5.74-.07-21.11-.34-69.63-1.31L341.17,397l-2.2,0a18,18,0,0,1-2.19-.11,17,17,0,0,1-4.08-1.33c-2.58-1.05-5.11-2-7.55-3-4.89-1.87-9.48-3.56-13.66-5.1-8.36-3.07-15.12-5.6-19.75-7.46-2.32-.92-4.11-1.65-5.31-2.17-.59-.25-1.05-.44-1.37-.59l-.47-.21.49.17,1.39.54,5.34,2.08c4.65,1.79,11.43,4.27,19.81,7.29,4.19,1.52,8.78,3.19,13.68,5,2.45.94,5,1.91,7.58,3a16.26,16.26,0,0,0,4,1.3,18.72,18.72,0,0,0,2.14.1l2.2,0,38.34.74,69.63,1.47,21.11.51,5.73.16,1.5.06A3.89,3.89,0,0,1,478,399.46Z" style="fill:#263238"></path><path d="M466.71,301.26c-1.84,3.77-3.86,9.35-3.48,15.13a7.19,7.19,0,0,0,7.12,6.74l17.57.13a5.19,5.19,0,0,0,5.27-4.37,4.64,4.64,0,0,0-.44-2.67c-1.83-3.72-3.35-3-3.35-3s-5.32-11-13.41-15.15A6.92,6.92,0,0,0,466.71,301.26Z" style="fill:#FFFFFF"></path><path d="M484.9,323.24c0,.07.7-.12,1.6-.77a6.54,6.54,0,0,0,2.55-3.46,15.11,15.11,0,0,0,.36-4.25,4.9,4.9,0,0,0-.16-1.75,5.31,5.31,0,0,0-.27,1.74,23.26,23.26,0,0,1-.51,4.09,7.12,7.12,0,0,1-2.24,3.29C485.44,322.83,484.86,323.16,484.9,323.24Z" style="fill:#263238"></path><path d="M486.23,310.88a7.52,7.52,0,0,0-1-2.27,21.57,21.57,0,0,0-3.63-4.77,21.82,21.82,0,0,0-4.79-3.59,7.29,7.29,0,0,0-2.28-1c-.1.17,3.39,1.72,6.64,5S486.06,311,486.23,310.88Z" style="fill:#fff"></path><path d="M350.57,265.72a2.09,2.09,0,0,1,.15.54c.09.41.2.92.33,1.55.27,1.35.64,3.3,1.07,5.72.87,4.84,2,11.54,3.12,19s1.94,14.18,2.37,19.08c.12,1.22.2,2.33.25,3.31s.12,1.82.13,2.51,0,1.16,0,1.58a3.33,3.33,0,0,1,0,.55,1.9,1.9,0,0,1-.08-.55c0-.42-.07-.94-.12-1.57s-.12-1.53-.21-2.5-.18-2.08-.32-3.3c-.53-4.88-1.43-11.61-2.53-19s-2.19-14.12-3-19c-.38-2.37-.69-4.32-.91-5.75-.09-.63-.17-1.15-.23-1.56A2.87,2.87,0,0,1,350.57,265.72Z" style="fill:#455a64"></path><g style="opacity:0.2"><path d="M139.54,322.8l21.14-12.54.61-3.82c8.21.82,18.17,1.59,20.53,2.54C181.82,309.62,155.82,317.86,139.54,322.8Z"></path></g><g style="opacity:0.2"><path d="M623.91,351.25l11.3,9.59,12.3,1.94v10.94l-18.13-9C627.16,359.55,625.12,354.68,623.91,351.25Z"></path></g><path d="M623.79,351.25a.91.91,0,0,1-.29-.1l-.82-.33-3.13-1.34L608,344.56c-4.86-2.06-10.66-4.51-17.16-7.07-3.26-1.25-6.68-2.6-10.31-3.64-1.82-.46-3.73-.74-5.67-1.07l-5.89-.94c-16-2.43-30.41-4.49-40.87-6L515.76,324l-3.37-.52-.87-.15a.94.94,0,0,1-.3-.07l.31,0,.88.1,3.37.42,12.41,1.66c10.48,1.44,24.94,3.43,40.9,5.87l5.9.93c1.93.34,3.85.62,5.71,1.09,3.69,1.07,7.09,2.43,10.36,3.69,6.49,2.59,12.28,5.07,17.13,7.18s8.75,3.85,11.44,5.07l3.09,1.43.8.38A1.41,1.41,0,0,1,623.79,351.25Z" style="fill:#263238"></path><circle cx="221.81" cy="397.3" r="39.99" transform="translate(-4.18 2.36) rotate(-0.6)" style="fill:#263238"></circle><path d="M181.83,396.62v.11a40,40,0,0,0,80,1.15v-.1Z" style="fill:#263238"></path><path d="M193.74,396.9a28.08,28.08,0,1,0,28.48-27.67A28.08,28.08,0,0,0,193.74,396.9Z" style="fill:#fafafa"></path><path d="M222.22,369.23a28.07,28.07,0,0,0-28.48,27.67l56.15.81A28.08,28.08,0,0,0,222.22,369.23Z" style="fill:#e0e0e0"></path><path d="M204.71,397.06a17.11,17.11,0,1,0,17.35-16.86A17.12,17.12,0,0,0,204.71,397.06Z" style="fill:#263238"></path><circle cx="552.78" cy="397.3" r="39.99" transform="translate(-4.88 6.88) rotate(-0.71)" style="fill:#263238"></circle><path d="M512.8,396.62a.41.41,0,0,0,0,.11,40,40,0,0,0,80,1.15v-.1Z" style="fill:#263238"></path><path d="M524.7,396.9a28.08,28.08,0,1,0,28.48-27.67A28.09,28.09,0,0,0,524.7,396.9Z" style="fill:#fafafa"></path><path d="M553.18,369.23A28.08,28.08,0,0,0,524.7,396.9l56.15.81A28.07,28.07,0,0,0,553.18,369.23Z" style="fill:#e0e0e0"></path><path d="M535.68,397.06A17.1,17.1,0,1,0,553,380.2,17.1,17.1,0,0,0,535.68,397.06Z" style="fill:#263238"></path><path d="M401.74,307.28c-.06-.13,7.35-4,16.55-8.65s16.72-8.32,16.78-8.19-7.34,4-16.54,8.65S401.81,307.41,401.74,307.28Z" style="fill:#fff"></path><path d="M391.43,306.26c-.07-.12,7-3.95,15.71-8.55s15.89-8.22,16-8.1-7,4-15.72,8.56S391.49,306.39,391.43,306.26Z" style="fill:#fff"></path><path d="M288.32,304.55a10.81,10.81,0,0,1,1.45-.65l4-1.59L307,297l13.13-5.41,4-1.64a9.15,9.15,0,0,1,1.48-.55,8,8,0,0,1-1.4.73c-.92.44-2.26,1.05-3.92,1.8-3.32,1.48-7.93,3.46-13.08,5.55s-9.84,3.88-13.25,5.13c-1.71.63-3.1,1.12-4.06,1.44A9.36,9.36,0,0,1,288.32,304.55Z" style="fill:#fff"></path><path d="M297.85,293.58a88,88,0,0,1,8.56-4.13,86.34,86.34,0,0,1,8.78-3.65,86.64,86.64,0,0,1-8.56,4.13A89.2,89.2,0,0,1,297.85,293.58Z" style="fill:#fff"></path><path d="M647.52,373.72a8.64,8.64,0,0,1-.1-1.58c0-1.1,0-2.55-.09-4.29s0-4-.11-6.34-1.94-4.48-3.64-6.6a36.74,36.74,0,0,0-5.66-5.26c-1.88-1.47-3.63-2.73-5.11-3.78l-3.52-2.45a9.59,9.59,0,0,1-1.27-.93,8.89,8.89,0,0,1,1.38.76c.87.53,2.11,1.31,3.62,2.32s3.29,2.24,5.19,3.7a34.44,34.44,0,0,1,5.77,5.31,29.3,29.3,0,0,1,2.41,3.28,8,8,0,0,1,1.31,3.6c.09,2.44,0,4.57,0,6.39s-.06,3.19-.08,4.29A8.64,8.64,0,0,1,647.52,373.72Z" style="fill:#263238"></path></g></svg>